<?xml version="1.0" encoding="UTF-8" standalone="no"?>
<svg
   xmlns:dc="http://purl.org/dc/elements/1.1/"
   xmlns:cc="http://creativecommons.org/ns#"
   xmlns:rdf="http://www.w3.org/1999/02/22-rdf-syntax-ns#"
   xmlns:svg="http://www.w3.org/2000/svg"
   xmlns="http://www.w3.org/2000/svg"
   xmlns:sodipodi="http://sodipodi.sourceforge.net/DTD/sodipodi-0.dtd"
   xmlns:inkscape="http://www.inkscape.org/namespaces/inkscape"
   sodipodi:docname="tableau.svg"
   inkscape:version="1.0beta2 (368ca91, 2020-02-26)"
   id="svg8"
   version="1.1"
   viewBox="0 0 24.1 102.6"
   height="102.6mm"
   width="24.1mm">
  <defs
     id="defs2" />
  <sodipodi:namedview
     fit-margin-bottom="0"
     fit-margin-right="0"
     fit-margin-left="0"
     fit-margin-top="0"
     inkscape:document-rotation="0"
     inkscape:snap-path-clip="true"
     borderlayer="true"
     inkscape:pagecheckerboard="false"
     inkscape:snap-grids="true"
     inkscape:window-maximized="1"
     inkscape:window-y="1072"
     inkscape:window-x="-8"
     inkscape:window-height="1057"
     inkscape:window-width="1920"
     showgrid="true"
     inkscape:current-layer="layer3"
     inkscape:document-units="mm"
     inkscape:cy="248.77146"
     inkscape:cx="155.65765"
     inkscape:zoom="1.4"
     inkscape:pageshadow="2"
     inkscape:pageopacity="0.0"
     borderopacity="1.0"
     bordercolor="#666666"
     pagecolor="#ffffff"
     id="base">
    <inkscape:grid
       originy="0.050000003"
       originx="0.049999999"
       snapvisiblegridlinesonly="false"
       empspacing="10"
       spacingy="0.50000002"
       spacingx="0.50000002"
       units="mm"
       id="grid25"
       type="xygrid" />
  </sodipodi:namedview>
  <metadata
     id="metadata5">
    <rdf:RDF>
      <cc:Work
         rdf:about="">
        <dc:format>image/svg+xml</dc:format>
        <dc:type
           rdf:resource="http://purl.org/dc/dcmitype/StillImage" />
        <dc:title></dc:title>
        <cc:license
           rdf:resource="http://creativecommons.org/licenses/by-nc-sa/4.0/" />
      </cc:Work>
      <cc:License
         rdf:about="http://creativecommons.org/licenses/by-nc-sa/4.0/">
        <cc:permits
           rdf:resource="http://creativecommons.org/ns#Reproduction" />
        <cc:permits
           rdf:resource="http://creativecommons.org/ns#Distribution" />
        <cc:requires
           rdf:resource="http://creativecommons.org/ns#Notice" />
        <cc:requires
           rdf:resource="http://creativecommons.org/ns#Attribution" />
        <cc:prohibits
           rdf:resource="http://creativecommons.org/ns#CommercialUse" />
        <cc:permits
           rdf:resource="http://creativecommons.org/ns#DerivativeWorks" />
        <cc:requires
           rdf:resource="http://creativecommons.org/ns#ShareAlike" />
      </cc:License>
    </rdf:RDF>
  </metadata>
  <g
     transform="translate(0.05,0.05)"
     inkscape:label="Images-Gravures"
     id="layer2"
     inkscape:groupmode="layer" />
  <g
     transform="translate(0.05,0.05)"
     id="layer1"
     inkscape:groupmode="layer"
     inkscape:label="Marquage" />
  <g
     transform="translate(0.05,0.05)"
     inkscape:label="Découpes"
     id="layer3"
     inkscape:groupmode="layer">
    <path
       inkscape:connector-curvature="0"
       d="M 0,52.500003 H 8.0000002 16 24 m -24,10 m 0,0 h 8.0000002 m 0,0 H 16 m 0,0 h 8 m 0,0 m -24,10 m 0,0 h 8.0000002 m 0,0 H 16 m 0,0 h 8 m 0,0 m -24,10 m 0,0 h 8.0000002 m 0,0 H 16 m 0,0 h 8 m 0,0 m -24,10 m 0,0 h 8.0000002 m 0,0 H 16 m 0,0 h 8 m 0,0 M 24,102.5 H 16 8.0000002 0 M 0,52.500003 v 10 m 0,0 v 10 m 0,0 v 10 m 0,0 v 10 m 0,0 V 102.5 M 8.0000002,52.500003 v 10 m 0,0 v 10 m 0,0 v 10 m 0,0 v 10 m 0,0 V 102.5 M 16,52.500003 v 10 m 0,0 v 10 m 0,0 v 10 m 0,0 v 10 m 0,0 V 102.5 m 8,-49.999997 v 10 m 0,0 v 10 m 0,0 v 10 m 0,0 v 10 m 0,0 V 102.5"
       style="fill:none;stroke:#ff0000;stroke-width:0.1"
       id="path16" />
    <path
       inkscape:connector-curvature="0"
       d="M 0,0.5 A 0.5,0.5 0 0 1 0.5,0 h 7 A 0.5,0.5 0 0 1 8,0.5 0.5,0.5 0 0 1 8.5,0 h 7 A 0.5,0.5 0 0 1 16,0.5 0.5,0.5 0 0 1 16.5,0 h 7 A 0.5,0.5 0 0 1 24,0.5 M 0,10.5 A 0.5,0.5 0 0 1 0.5,10 0.5,0.5 0 0 1 0,9.5 M 0.5,10 h 7 A 0.5,0.5 0 0 1 8,10.5 0.5,0.5 0 0 1 8.5,10 0.5,0.5 0 0 1 8,9.5 0.5,0.5 0 0 1 7.5,10 m 1,0 h 7 A 0.5,0.5 0 0 1 16,10.5 0.5,0.5 0 0 1 16.5,10 0.5,0.5 0 0 1 16,9.5 0.5,0.5 0 0 1 15.5,10 m 1,0 h 7 M 24,9.5 A 0.5,0.5 0 0 1 23.5,10 0.5,0.5 0 0 1 24,10.5 M 0,20.5 A 0.5,0.5 0 0 1 0.5,20 0.5,0.5 0 0 1 0,19.5 M 0.5,20 h 7 A 0.5,0.5 0 0 1 8,20.5 0.5,0.5 0 0 1 8.5,20 0.5,0.5 0 0 1 8,19.5 0.5,0.5 0 0 1 7.5,20 m 1,0 h 7 A 0.5,0.5 0 0 1 16,20.5 0.5,0.5 0 0 1 16.5,20 0.5,0.5 0 0 1 16,19.5 0.5,0.5 0 0 1 15.5,20 m 1,0 h 7 M 24,19.5 A 0.5,0.5 0 0 1 23.5,20 0.5,0.5 0 0 1 24,20.5 M 0,30.5 A 0.5,0.5 0 0 1 0.5,30 0.5,0.5 0 0 1 0,29.5 M 0.5,30 h 7 A 0.5,0.5 0 0 1 8,30.5 0.5,0.5 0 0 1 8.5,30 0.5,0.5 0 0 1 8,29.5 0.5,0.5 0 0 1 7.5,30 m 1,0 h 7 A 0.5,0.5 0 0 1 16,30.5 0.5,0.5 0 0 1 16.5,30 0.5,0.5 0 0 1 16,29.5 0.5,0.5 0 0 1 15.5,30 m 1,0 h 7 M 24,29.5 A 0.5,0.5 0 0 1 23.5,30 0.5,0.5 0 0 1 24,30.5 M 0,40.5 A 0.5,0.5 0 0 1 0.5,40 0.5,0.5 0 0 1 0,39.5 M 0.5,40 h 7 A 0.5,0.5 0 0 1 8,40.5 0.5,0.5 0 0 1 8.5,40 0.5,0.5 0 0 1 8,39.5 0.5,0.5 0 0 1 7.5,40 m 1,0 h 7 A 0.5,0.5 0 0 1 16,40.5 0.5,0.5 0 0 1 16.5,40 0.5,0.5 0 0 1 16,39.5 0.5,0.5 0 0 1 15.5,40 m 1,0 h 7 M 24,39.5 A 0.5,0.5 0 0 1 23.5,40 0.5,0.5 0 0 1 24,40.5 m 0,9 A 0.5,0.5 0 0 1 23.5,50 h -7 A 0.5,0.5 0 0 1 16,49.5 0.5,0.5 0 0 1 15.5,50 h -7 A 0.5,0.5 0 0 1 8,49.5 0.5,0.5 0 0 1 7.5,50 h -7 A 0.5,0.5 0 0 1 0,49.5 m 0,-49 v 9 m 0,1 v 9 m 0,1 v 9 m 0,1 v 9 m 0,1 v 9 m 8,-49 v 9 m 0,1 v 9 m 0,1 v 9 m 0,1 v 9 m 0,1 v 9 m 8,-49 v 9 m 0,1 v 9 m 0,1 v 9 m 0,1 v 9 m 0,1 v 9 m 8,-49 v 9 m 0,1 v 9 m 0,1 v 9 m 0,1 v 9 m 0,1 v 9"
       style="fill:none;stroke:#0000ff;stroke-width:0.1"
       id="path29" />
  </g>
</svg>
